<?xml version="1.0" standalone="no"?>
<!DOCTYPE svg PUBLIC "-//W3C//DTD SVG 20010904//EN"
 "http://www.w3.org/TR/2001/REC-SVG-20010904/DTD/svg10.dtd">
<svg version="1.0" xmlns="http://www.w3.org/2000/svg"
 width="454.000000pt" height="454.000000pt" viewBox="0 0 454.000000 454.000000"
 preserveAspectRatio="xMidYMid meet">
<metadata>
Created by potrace 1.14, written by Peter Selinger 2001-2017
</metadata>
<g transform="translate(0.000000,454.000000) scale(0.100000,-0.100000)"
fill="#000000" stroke="none">
<path d="M1150 3221 l0 -208 303 -4 c472 -5 512 -4 547 21 l28 20 48 -25 c30
-16 63 -25 91 -25 50 0 117 30 133 60 11 21 19 84 20 163 0 29 4 46 10 42 6
-4 10 -58 10 -130 0 -142 -5 -135 101 -135 l69 0 0 130 c0 72 4 130 9 130 14
0 18 -55 13 -162 l-4 -98 195 0 c190 0 195 1 230 25 21 13 39 20 42 14 36 -57
226 -52 249 7 5 13 11 11 41 -15 20 -17 43 -31 53 -32 9 0 32 -2 51 -5 117
-15 187 74 148 190 -9 27 -12 48 -6 51 13 9 11 92 -3 118 -16 32 -37 45 -88
56 -54 12 -122 0 -161 -29 -26 -18 -27 -18 -43 -1 -19 21 -80 41 -124 41 -39
0 -81 -16 -108 -41 l-21 -20 -38 25 c-43 30 -26 29 -560 30 -349 1 -375 0
-375 -20 0 -18 -5 -18 -35 2 -27 18 -101 22 -532 28 l-293 4 0 -207z"/>
<path d="M2621 2873 l-31 -38 -208 -1 c-338 -2 -495 -15 -777 -65 -249 -44
-345 -65 -491 -107 l-131 -38 -27 23 c-22 18 -39 23 -87 23 -56 0 -61 -2 -99
-41 -22 -23 -44 -55 -48 -72 -6 -23 -21 -37 -62 -60 -260 -139 -455 -386 -491
-619 -6 -40 -12 -74 -14 -76 -1 -1 -18 5 -38 13 -89 37 -122 7 -112 -102 6
-72 37 -189 62 -237 l16 -30 18 36 c10 19 34 49 55 67 l36 32 19 -20 c11 -11
19 -25 19 -30 0 -5 22 -32 48 -58 77 -78 187 -122 327 -130 172 -10 409 31
512 89 49 28 53 29 60 11 15 -43 79 -107 131 -131 95 -43 202 -18 202 48 0 14
5 31 11 37 26 26 1 61 -65 92 -62 29 -84 46 -72 58 3 3 33 13 68 23 35 10 117
34 183 53 212 62 386 82 700 82 217 0 353 -10 485 -34 349 -65 577 -144 869
-301 100 -53 164 -66 266 -51 131 18 230 77 319 191 l27 35 17 -25 c26 -39 88
-100 102 -100 9 0 10 10 6 34 -6 29 -1 43 27 83 19 26 47 72 62 102 40 81 33
91 -105 144 l-65 25 -7 58 c-10 72 -41 170 -81 249 -100 201 -313 361 -662
498 l-110 44 -6 61 c-7 69 -27 107 -63 116 -40 10 -70 -9 -105 -63 -21 -32
-40 -51 -52 -51 -11 0 -59 9 -107 19 -117 27 -222 47 -309 61 -63 10 -72 14
-78 37 -9 38 -50 73 -84 73 -22 0 -37 -10 -60 -37z m99 -18 c10 -12 13 -116
11 -476 -1 -254 -6 -471 -11 -483 -20 -53 -72 -55 -93 -3 l-13 31 -20 -22
c-38 -40 -135 -58 -184 -32 -98 50 -146 199 -109 335 15 53 67 122 103 135 54
19 130 12 170 -15 20 -14 39 -25 41 -25 2 0 5 121 7 268 2 209 6 273 17 285
17 21 64 22 81 2z m704 -58 c11 -8 21 -33 25 -58 4 -24 4 -222 1 -439 -6 -424
-10 -450 -56 -450 -30 0 -52 23 -60 64 -10 59 2 828 14 858 9 22 20 30 53 37
3 0 13 -5 23 -12z m-2478 -182 c6 -8 28 -104 48 -212 46 -241 46 -241 57 -222
4 8 24 94 43 190 41 203 51 240 68 251 25 15 105 9 129 -11 l24 -19 0 -504 0
-503 26 -50 c22 -43 33 -53 74 -68 27 -10 55 -23 62 -29 23 -19 -5 -38 -57
-38 -61 0 -135 47 -167 106 -51 92 -56 140 -51 511 3 189 2 343 -2 343 -4 0
-19 -62 -35 -137 -66 -324 -75 -353 -120 -353 -49 0 -64 34 -95 215 -11 66
-27 166 -37 223 -9 56 -19 102 -22 102 -4 0 -7 -106 -9 -236 -2 -175 -7 -246
-17 -270 -16 -39 -43 -44 -70 -14 -16 18 -18 45 -16 352 2 355 5 377 51 388
40 9 104 1 116 -15z m804 -246 c90 -21 112 -66 112 -232 0 -62 4 -138 10 -169
9 -49 8 -62 -6 -83 -23 -34 -50 -31 -81 9 l-26 35 -36 -25 c-79 -53 -170 -52
-225 4 -38 37 -49 121 -24 170 21 40 50 55 170 86 54 13 100 27 103 30 3 3 2
21 -1 40 -14 72 -117 69 -169 -4 -47 -67 -107 -44 -92 36 15 82 142 131 265
103z m327 -30 c7 -24 7 -24 37 6 35 35 107 35 141 0 29 -29 32 -55 8 -84 -16
-18 -23 -19 -56 -12 -89 21 -108 -12 -117 -207 -8 -154 -18 -182 -66 -182 -48
0 -54 28 -53 245 1 110 4 211 8 225 14 51 86 57 98 9z m1028 20 c77 -21 135
-110 135 -206 0 -65 -16 -72 -165 -76 l-130 -4 1 -37 c2 -43 33 -82 74 -91 34
-7 87 14 115 45 43 49 95 48 95 -2 0 -44 -29 -87 -75 -111 -54 -29 -166 -27
-224 2 -101 52 -141 204 -92 347 40 116 143 167 266 133z m519 -56 c7 -16 33
-95 56 -178 23 -82 46 -154 50 -158 3 -4 14 21 24 55 37 136 88 288 102 299
20 17 63 2 76 -26 10 -22 -1 -62 -77 -287 -104 -309 -125 -361 -157 -382 -38
-25 -108 -31 -151 -13 -33 14 -37 20 -37 51 0 39 27 62 62 53 33 -9 62 11 81
56 l17 42 -65 190 c-83 243 -88 261 -69 297 20 39 68 39 88 1z"/>
<path d="M2480 2247 c-127 -65 -72 -331 59 -286 49 17 74 75 69 161 -3 60 -7
72 -34 98 -35 35 -62 43 -94 27z"/>
<path d="M1680 2093 c-25 -7 -56 -19 -69 -26 -75 -38 -14 -140 66 -111 38 13
73 68 73 115 0 43 -2 44 -70 22z"/>
<path d="M2971 2244 c-24 -31 -36 -68 -26 -83 3 -7 44 -11 97 -11 l91 0 -7 33
c-11 56 -37 82 -88 85 -40 3 -49 -1 -67 -24z"/>
</g>
</svg>
